<?xml version="1.0" standalone="no"?>
<!DOCTYPE svg PUBLIC "-//W3C//DTD SVG 20010904//EN"
 "http://www.w3.org/TR/2001/REC-SVG-20010904/DTD/svg10.dtd">
<svg version="1.0" xmlns="http://www.w3.org/2000/svg"
 width="900.000000pt" height="813.000000pt" viewBox="0 0 900.000000 813.000000"
 preserveAspectRatio="xMidYMid meet">
<metadata>
Created by potrace 1.10, written by Peter Selinger 2001-2011
</metadata>
<g transform="translate(0.000000,813.000000) scale(0.100000,-0.100000)"
fill="#645b5b" stroke="none">
<path d="M0 4065 l0 -4065 4500 0 4500 0 0 4065 0 4065 -4500 0 -4500 0 0
-4065z m4638 2376 c2 -7 35 -11 87 -11 57 0 86 -4 94 -14 8 -9 26 -12 61 -8
40 4 51 1 56 -12 4 -11 19 -16 50 -16 30 0 46 -5 50 -15 4 -9 19 -15 39 -15
18 0 38 -7 45 -15 7 -9 20 -13 28 -10 8 3 35 -6 59 -20 25 -14 56 -25 69 -25
12 0 26 -4 29 -10 3 -5 15 -10 26 -10 11 0 22 -7 25 -15 4 -8 17 -15 29 -15
13 0 27 -5 31 -11 3 -6 25 -20 48 -31 49 -23 103 -59 132 -87 12 -12 28 -21
37 -21 8 0 29 -13 45 -30 17 -16 36 -30 44 -30 7 0 39 -27 72 -60 32 -33 63
-60 69 -60 14 0 187 -171 187 -185 0 -5 25 -36 55 -69 30 -32 55 -64 55 -71 0
-7 16 -27 35 -44 19 -17 35 -39 35 -50 0 -11 8 -25 19 -30 10 -6 28 -34 41
-63 12 -29 31 -59 41 -66 12 -8 19 -25 19 -46 0 -21 6 -36 15 -40 8 -3 15 -13
15 -22 0 -10 6 -25 13 -33 26 -32 80 -175 78 -209 0 -12 6 -25 14 -28 8 -4 15
-18 15 -33 0 -15 7 -36 15 -47 8 -10 15 -38 15 -60 0 -29 5 -44 16 -48 14 -5
16 -16 11 -55 -5 -39 -2 -52 12 -65 14 -13 16 -26 11 -72 -5 -42 -3 -60 8 -70
11 -12 14 -57 13 -242 -1 -128 -6 -231 -12 -236 -5 -6 -9 -41 -9 -79 0 -37 -5
-78 -12 -90 -6 -12 -11 -38 -9 -58 1 -25 -3 -38 -14 -42 -10 -5 -15 -20 -15
-51 0 -30 -5 -46 -15 -50 -9 -3 -15 -18 -15 -39 0 -19 -7 -40 -15 -47 -9 -7
-13 -20 -10 -28 3 -8 -1 -22 -8 -31 -8 -9 -17 -33 -20 -55 -3 -21 -13 -46 -22
-56 -8 -9 -15 -26 -15 -39 0 -12 -7 -24 -15 -27 -8 -4 -15 -17 -15 -31 0 -29
-24 -79 -55 -113 -12 -14 -28 -42 -35 -62 -6 -21 -22 -46 -36 -57 -13 -10 -24
-28 -24 -40 0 -12 -7 -24 -15 -28 -9 -3 -24 -22 -35 -42 -10 -20 -35 -52 -55
-71 -20 -19 -40 -43 -44 -52 -9 -24 -261 -278 -275 -278 -7 0 -27 -16 -46 -35
-19 -19 -40 -35 -47 -35 -7 0 -34 -20 -60 -45 -25 -25 -55 -45 -67 -45 -12 0
-36 -13 -54 -30 -18 -16 -39 -30 -47 -30 -8 0 -17 -4 -20 -10 -3 -5 -23 -17
-43 -26 -20 -8 -44 -20 -52 -25 -35 -21 -84 -39 -106 -39 -13 0 -24 -4 -24
-10 0 -5 -8 -10 -19 -10 -10 0 -24 -7 -31 -15 -7 -8 -25 -15 -40 -15 -15 0
-33 -7 -40 -15 -7 -8 -25 -15 -40 -15 -15 0 -33 -7 -40 -15 -9 -11 -22 -14
-42 -10 -21 5 -35 2 -48 -10 -15 -14 -30 -16 -64 -12 -33 5 -47 3 -57 -10 -11
-12 -27 -14 -76 -10 -47 3 -65 1 -71 -9 -11 -21 -472 -22 -484 -1 -6 11 -22
14 -71 10 -49 -4 -65 -2 -76 10 -10 13 -24 15 -57 10 -34 -4 -49 -2 -64 12
-13 12 -27 15 -48 10 -20 -4 -33 -1 -42 10 -7 8 -28 15 -47 15 -21 0 -36 6
-39 15 -4 8 -17 15 -30 15 -12 0 -44 11 -70 25 -26 14 -54 25 -64 25 -22 0
-227 104 -254 128 -11 11 -31 23 -43 26 -11 4 -24 13 -27 21 -3 8 -13 15 -23
15 -10 0 -31 14 -47 30 -16 17 -35 30 -43 30 -7 0 -35 22 -62 50 -27 28 -55
50 -63 50 -17 0 -218 202 -218 219 0 6 -25 37 -55 68 -30 32 -55 63 -55 71 0
7 -13 25 -30 39 -16 13 -30 32 -30 41 0 10 -12 28 -25 41 -14 12 -34 44 -45
69 -12 25 -30 55 -41 65 -11 11 -18 25 -15 32 3 8 -6 33 -19 57 -14 24 -27 48
-29 53 -2 6 -7 17 -10 25 -3 8 -15 29 -25 45 -11 17 -20 42 -20 57 -1 15 -6
30 -11 33 -6 3 -10 19 -10 35 0 16 -4 32 -10 35 -5 3 -10 19 -10 34 0 16 -7
34 -15 41 -9 8 -15 29 -15 55 0 29 -5 45 -15 49 -11 4 -15 20 -15 56 0 30 -7
61 -16 76 -12 18 -15 37 -10 72 4 35 2 53 -9 67 -21 29 -21 421 0 449 11 15
13 36 8 92 -5 63 -3 74 11 80 12 5 16 20 16 64 0 42 4 59 15 64 10 4 15 19 15
49 0 28 6 49 15 57 9 7 14 21 13 30 -2 9 2 28 8 41 17 36 34 93 34 112 0 10
11 35 25 57 14 22 25 46 25 54 0 8 7 16 15 20 8 3 15 14 15 24 0 10 6 24 12
30 7 7 13 26 14 43 1 18 10 36 23 45 11 8 21 22 21 30 0 18 41 84 64 103 9 7
16 21 16 30 1 9 14 27 30 41 17 13 30 30 30 37 0 8 27 43 60 78 33 35 60 70
60 76 0 16 165 179 182 179 8 0 34 21 58 46 25 25 61 54 80 64 19 10 44 30 54
44 10 14 26 26 36 26 9 0 27 11 40 25 13 14 29 25 35 25 7 0 20 9 29 19 10 11
38 29 64 40 47 21 58 27 97 49 39 23 88 42 105 42 10 0 23 7 30 15 7 9 19 14
25 11 17 -6 88 19 93 33 2 6 23 11 47 11 26 0 47 6 55 15 7 8 27 15 45 15 21
0 35 6 39 16 5 12 17 15 54 12 32 -2 55 2 66 11 11 10 38 14 80 12 45 -2 65 2
68 11 7 17 440 17 446 -1z"/>
<path d="M4214 6315 c-14 -11 -36 -13 -87 -8 -55 5 -71 3 -86 -11 -14 -13 -28
-16 -49 -11 -20 4 -33 1 -42 -10 -7 -8 -29 -15 -49 -15 -20 0 -45 -7 -55 -15
-11 -8 -32 -15 -47 -15 -15 0 -29 -7 -33 -15 -3 -8 -18 -15 -34 -15 -15 0 -58
-16 -95 -35 -36 -19 -73 -32 -80 -29 -8 3 -20 -2 -27 -11 -7 -8 -20 -15 -29
-15 -10 0 -30 -13 -45 -29 -15 -16 -40 -31 -54 -34 -29 -6 -78 -39 -146 -98
-22 -20 -51 -39 -63 -43 -12 -4 -40 -27 -61 -52 -22 -24 -46 -44 -55 -44 -19
0 -177 -159 -177 -178 0 -8 -22 -34 -50 -59 -27 -25 -50 -53 -50 -62 0 -9 -16
-33 -35 -51 -36 -35 -65 -82 -65 -106 0 -7 -8 -19 -17 -26 -21 -16 -53 -73
-53 -94 0 -8 -7 -17 -15 -20 -8 -4 -15 -12 -15 -19 0 -14 -54 -121 -72 -142
-5 -7 -7 -16 -4 -21 3 -6 -1 -26 -9 -46 -9 -20 -13 -41 -10 -45 2 -5 -2 -14
-10 -21 -8 -7 -15 -25 -15 -40 0 -15 -7 -33 -15 -40 -9 -7 -15 -29 -15 -55 0
-26 -6 -47 -15 -55 -9 -8 -15 -26 -13 -45 1 -18 -4 -41 -12 -50 -9 -10 -13
-36 -11 -71 1 -30 -3 -61 -9 -69 -15 -18 -16 -433 -1 -448 6 -6 11 -45 11 -87
0 -44 5 -81 12 -88 6 -6 10 -35 9 -65 -1 -41 2 -56 14 -61 10 -4 15 -19 15
-50 0 -30 5 -46 15 -50 8 -3 15 -16 15 -30 0 -13 7 -27 16 -30 9 -3 14 -12 11
-20 -3 -7 5 -42 17 -77 20 -58 32 -83 58 -129 4 -8 11 -22 14 -30 3 -8 9 -22
14 -30 5 -8 24 -47 44 -86 19 -39 42 -77 51 -84 8 -7 15 -18 15 -24 0 -6 20
-33 45 -61 25 -27 45 -55 45 -60 0 -6 20 -31 45 -55 25 -24 45 -50 45 -58 0
-18 154 -172 205 -204 22 -14 56 -42 74 -62 19 -20 43 -36 53 -36 9 0 22 -9
28 -20 6 -11 19 -20 29 -20 9 0 28 -11 41 -25 13 -14 29 -25 37 -25 7 0 21 -9
31 -21 9 -11 31 -27 47 -35 17 -7 37 -17 45 -22 46 -26 84 -42 101 -42 11 0
22 -7 25 -15 4 -8 18 -15 33 -15 14 0 35 -7 45 -15 11 -8 32 -15 47 -15 15 0
29 -6 32 -14 5 -13 29 -19 122 -32 22 -4 44 -10 49 -15 6 -5 27 -9 47 -9 20 0
42 -6 48 -14 9 -10 28 -12 76 -8 54 4 66 2 71 -12 5 -14 33 -16 239 -16 202 0
234 2 246 16 10 13 25 15 65 11 34 -4 61 -1 79 9 15 8 42 14 61 14 18 0 36 5
39 10 3 6 24 10 45 10 21 0 42 5 45 10 3 6 22 10 41 10 22 0 37 6 40 15 4 8
18 15 34 15 15 0 33 7 40 15 7 8 27 15 45 15 20 0 35 6 39 15 3 8 13 15 22 15
9 0 33 8 53 19 20 10 53 27 74 37 21 11 48 29 59 42 12 12 29 22 39 22 9 0 19
7 23 15 3 8 15 15 26 15 12 0 33 14 47 30 13 17 32 30 40 30 9 0 38 23 65 50
27 28 55 50 62 50 17 0 230 215 235 237 1 9 23 34 47 56 24 22 44 48 44 57 0
9 14 29 30 45 17 16 30 37 30 47 0 9 9 22 20 28 11 6 20 16 20 22 0 14 61 137
72 144 4 3 8 13 8 24 0 10 7 20 15 24 8 3 15 13 15 23 0 10 9 33 20 51 11 18
20 43 20 56 0 13 11 40 25 60 14 20 25 50 25 65 0 16 7 34 15 41 9 7 15 29 15
51 0 21 4 41 10 44 6 3 10 28 10 54 0 27 7 61 15 77 9 18 12 42 8 70 -4 30 -1
49 11 65 14 20 16 57 16 245 0 192 -2 223 -16 235 -13 11 -15 26 -11 75 5 49
3 65 -10 75 -12 10 -14 25 -10 62 5 37 3 49 -8 54 -10 3 -15 20 -15 48 0 26
-6 47 -15 55 -8 7 -15 27 -15 45 0 20 -6 35 -15 39 -8 3 -15 14 -15 25 0 11
-4 23 -10 26 -5 3 -10 15 -10 25 0 17 -53 134 -81 180 -5 8 -11 21 -14 28 -3
6 -7 18 -10 25 -5 11 -31 55 -80 137 -11 19 -37 52 -57 75 -21 23 -38 48 -38
54 0 7 -13 24 -30 38 -16 13 -30 32 -30 41 0 21 -220 242 -241 242 -9 0 -34
20 -57 45 -22 25 -47 45 -55 45 -7 0 -29 14 -47 30 -18 17 -39 30 -45 30 -7 0
-20 9 -30 20 -10 11 -23 20 -30 20 -6 0 -22 11 -35 25 -13 14 -31 25 -41 25
-9 0 -19 7 -23 15 -3 8 -16 15 -30 15 -13 0 -26 7 -30 15 -3 8 -14 15 -25 15
-11 0 -23 5 -27 11 -3 6 -14 9 -24 6 -9 -2 -35 6 -56 19 -21 13 -52 24 -67 24
-15 0 -30 7 -33 15 -4 9 -19 15 -39 15 -18 0 -38 7 -45 15 -8 9 -29 15 -55 15
-30 0 -45 5 -49 16 -4 12 -14 14 -36 9 -21 -5 -39 -2 -56 10 -21 14 -39 16
-93 10 -55 -5 -70 -4 -80 9 -19 23 -397 24 -427 1z m-334 -850 c6 -3 10 -12
10 -20 0 -7 14 -44 31 -82 17 -37 37 -84 46 -103 8 -19 28 -62 43 -95 43 -89
90 -194 90 -200 0 -2 18 -42 41 -87 23 -46 45 -94 49 -108 5 -14 38 -90 75
-170 70 -153 105 -244 105 -270 0 -9 11 -27 24 -39 l24 -23 12 21 c6 12 22 56
36 97 13 42 34 97 46 123 31 69 87 190 109 237 10 22 19 43 19 47 0 4 20 48
44 99 24 51 61 131 81 178 21 47 55 122 76 168 22 45 39 85 39 89 0 7 32 81
53 121 l12 24 343 0 343 1 0 -1203 0 -1202 -291 0 c-161 0 -294 3 -297 5 -3 3
-4 320 -3 704 1 588 3 709 16 765 20 88 44 89 44 2 0 -20 4 -44 10 -54 6 -11
10 -240 11 -597 1 -318 5 -606 10 -638 14 -93 19 -95 219 -95 144 0 170 2 181
17 12 13 14 190 14 1062 0 575 -4 1063 -8 1084 -6 27 -15 41 -33 48 -14 5
-124 10 -244 12 l-218 2 -32 -30 c-33 -32 -110 -173 -110 -201 0 -10 -6 -25
-14 -33 -15 -18 -96 -195 -96 -211 0 -6 -16 -41 -34 -78 -19 -37 -62 -128 -94
-202 -106 -239 -129 -283 -174 -326 -24 -23 -52 -45 -64 -48 -24 -7 -90 36
-121 81 -24 33 -114 213 -132 263 -7 19 -30 71 -51 115 -21 44 -50 105 -63
135 -14 30 -34 76 -46 101 -12 25 -21 50 -21 56 0 6 -17 44 -39 86 -21 41 -47
97 -57 124 -9 26 -23 55 -31 64 -7 8 -13 20 -13 25 0 21 -57 62 -95 69 -69 13
-427 11 -451 -2 -17 -10 -23 -25 -27 -70 -3 -32 -4 -519 -3 -1081 l1 -1024 21
-17 c18 -15 46 -18 164 -20 161 -2 185 5 194 61 3 18 7 314 9 658 4 585 5 629
23 685 47 144 51 82 54 -788 l3 -709 -277 0 c-153 0 -279 2 -282 5 -3 3 -7
2304 -4 2397 0 7 688 2 700 -5z m-22 -882 c41 -67 72 -130 132 -268 29 -66 63
-142 77 -170 14 -27 40 -92 59 -144 18 -51 40 -101 49 -111 8 -9 15 -22 15
-29 0 -25 41 -90 70 -111 27 -19 46 -22 133 -24 128 -1 146 9 189 102 63 138
77 169 113 257 20 50 50 118 66 152 16 35 29 65 29 68 0 6 56 130 76 170 9 17
27 51 41 77 20 38 59 78 76 78 6 0 -17 -96 -41 -166 -21 -64 -134 -337 -183
-441 -16 -35 -29 -69 -29 -77 0 -8 -4 -17 -9 -21 -5 -3 -15 -22 -22 -43 -6
-20 -22 -59 -34 -87 -12 -27 -30 -72 -40 -100 -10 -27 -21 -54 -25 -58 -8 -9
-394 -12 -408 -3 -6 4 -20 30 -31 59 -27 70 -73 182 -100 239 -11 26 -21 49
-21 52 0 2 -13 34 -30 69 -16 36 -30 68 -30 70 0 3 -13 34 -29 69 -16 35 -48
113 -71 173 -23 61 -48 124 -55 141 -7 17 -16 52 -20 78 -10 63 13 62 53 -1z"/>
</g>
</svg>
